<svg width="577" height="205" viewBox="0 0 577 205" fill="none" xmlns="http://www.w3.org/2000/svg">
<rect x="2" y="27.6719" width="301.812" height="2" fill="#5C8692"/>
<rect x="303.812" y="29.6719" width="2" height="173" fill="#1E2C30"/>
<path d="M2 30H304V203H2V30Z" fill="white"/>
<path d="M61 136C62.6569 136 64 134.657 64 133C64 131.343 62.6569 130 61 130C59.3431 130 58 131.343 58 133C58 134.657 59.3431 136 61 136Z" fill="#5C8692"/>
<path d="M49 136C50.6569 136 52 134.657 52 133C52 131.343 50.6569 130 49 130C47.3431 130 46 131.343 46 133C46 134.657 47.3431 136 49 136Z" fill="#5C8692"/>
<path d="M37 136C38.6569 136 40 134.657 40 133C40 131.343 38.6569 130 37 130C35.3431 130 34 131.343 34 133C34 134.657 35.3431 136 37 136Z" fill="#5C8692"/>
<path d="M89.061 137.21C88.0577 137.21 87.2107 136.988 86.52 136.545C85.8293 136.097 85.3067 135.479 84.952 134.69C84.5973 133.901 84.42 132.991 84.42 131.96C84.42 130.929 84.5973 130.019 84.952 129.23C85.3067 128.441 85.8293 127.825 86.52 127.382C87.2107 126.934 88.0577 126.71 89.061 126.71C90.2323 126.71 91.189 127.011 91.931 127.613C92.673 128.21 93.1817 129.013 93.457 130.021L92.407 130.294C92.1923 129.496 91.8073 128.864 91.252 128.397C90.6967 127.93 89.9663 127.697 89.061 127.697C88.2723 127.697 87.6167 127.877 87.094 128.236C86.5713 128.595 86.177 129.097 85.911 129.741C85.6497 130.38 85.5143 131.12 85.505 131.96C85.5003 132.8 85.6287 133.54 85.89 134.179C86.156 134.818 86.5527 135.32 87.08 135.684C87.612 136.043 88.2723 136.223 89.061 136.223C89.9663 136.223 90.6967 135.99 91.252 135.523C91.8073 135.052 92.1923 134.419 92.407 133.626L93.457 133.899C93.1817 134.907 92.673 135.712 91.931 136.314C91.189 136.911 90.2323 137.21 89.061 137.21ZM94.028 137L97.5 126.92H98.865L102.337 137H101.266L97.969 127.494H98.375L95.099 137H94.028ZM95.575 134.557V133.591H100.783V134.557H95.575ZM103.741 137V126.92H104.77V136.013H109.558V137H103.741ZM110.891 137V126.92H111.92V136.013H116.708V137H110.891ZM123.941 137.21C123.171 137.21 122.49 137.051 121.897 136.734C121.309 136.417 120.847 135.969 120.511 135.39C120.175 134.811 120.007 134.135 120.007 133.36V126.927L121.043 126.92V133.227C121.043 133.75 121.132 134.202 121.309 134.585C121.487 134.963 121.718 135.276 122.002 135.523C122.292 135.766 122.607 135.945 122.947 136.062C123.288 136.179 123.619 136.237 123.941 136.237C124.268 136.237 124.602 136.179 124.942 136.062C125.283 135.945 125.596 135.766 125.88 135.523C126.165 135.276 126.396 134.963 126.573 134.585C126.751 134.202 126.839 133.75 126.839 133.227V126.92H127.875V133.36C127.875 134.135 127.707 134.811 127.371 135.39C127.035 135.964 126.571 136.412 125.978 136.734C125.39 137.051 124.711 137.21 123.941 137.21ZM132.914 137.21C132.209 137.21 131.574 137.093 131.01 136.86C130.45 136.622 129.985 136.286 129.617 135.852C129.253 135.418 129.015 134.902 128.903 134.305L129.953 134.13C130.121 134.783 130.475 135.297 131.017 135.67C131.558 136.039 132.204 136.223 132.956 136.223C133.45 136.223 133.894 136.146 134.286 135.992C134.678 135.833 134.986 135.609 135.21 135.32C135.434 135.031 135.546 134.688 135.546 134.291C135.546 134.03 135.499 133.808 135.406 133.626C135.312 133.439 135.189 133.285 135.035 133.164C134.881 133.043 134.713 132.942 134.531 132.863C134.349 132.779 134.171 132.711 133.999 132.66L131.444 131.897C131.136 131.808 130.851 131.696 130.59 131.561C130.328 131.421 130.1 131.255 129.904 131.064C129.712 130.868 129.563 130.639 129.456 130.378C129.348 130.117 129.295 129.818 129.295 129.482C129.295 128.913 129.444 128.42 129.743 128.005C130.041 127.59 130.45 127.27 130.968 127.046C131.486 126.822 132.076 126.712 132.739 126.717C133.411 126.717 134.01 126.836 134.538 127.074C135.07 127.312 135.508 127.653 135.854 128.096C136.199 128.535 136.428 129.055 136.54 129.657L135.462 129.853C135.392 129.414 135.231 129.034 134.979 128.712C134.727 128.39 134.405 128.143 134.013 127.97C133.625 127.793 133.198 127.702 132.732 127.697C132.279 127.697 131.875 127.774 131.521 127.928C131.171 128.077 130.893 128.283 130.688 128.544C130.482 128.805 130.38 129.104 130.38 129.44C130.38 129.781 130.473 130.054 130.66 130.259C130.851 130.464 131.084 130.625 131.36 130.742C131.64 130.859 131.91 130.954 132.172 131.029L134.146 131.61C134.351 131.666 134.591 131.748 134.867 131.855C135.147 131.958 135.417 132.107 135.679 132.303C135.945 132.494 136.164 132.746 136.337 133.059C136.509 133.372 136.596 133.768 136.596 134.249C136.596 134.716 136.502 135.133 136.316 135.502C136.134 135.871 135.875 136.181 135.539 136.433C135.207 136.685 134.818 136.876 134.37 137.007C133.926 137.142 133.441 137.21 132.914 137.21ZM141.403 135.88V134.683H142.6V135.88H141.403ZM141.41 131.757V130.56H142.607V131.757H141.41Z" fill="#141414"/>
<path d="M88.9275 160.693C88.3375 160.018 87.83 159.263 87.405 158.428C86.985 157.597 86.66 156.725 86.43 155.81C86.205 154.895 86.095 153.975 86.1 153.05C86.095 152.125 86.205 151.205 86.43 150.29C86.66 149.37 86.985 148.495 87.405 147.665C87.83 146.835 88.3375 146.082 88.9275 145.407L89.7375 146.037C89.1575 146.732 88.6725 147.462 88.2825 148.227C87.8925 148.987 87.6 149.772 87.405 150.582C87.215 151.392 87.1175 152.215 87.1125 153.05C87.1175 153.875 87.2175 154.697 87.4125 155.517C87.6125 156.332 87.905 157.125 88.29 157.895C88.68 158.66 89.1625 159.378 89.7375 160.048L88.9275 160.693ZM95.4417 156.027V153.072H92.4867V152.127H95.4417V149.172H96.3867V152.127H99.3342V153.072H96.3867V156.027H95.4417ZM104.362 158V148.43L102.329 149.652V148.415L104.362 147.2H105.479V158H104.362ZM109.937 160.243L109.127 159.598C109.702 158.928 110.182 158.21 110.567 157.445C110.957 156.675 111.249 155.882 111.444 155.067C111.644 154.247 111.747 153.425 111.752 152.6C111.747 151.765 111.647 150.942 111.452 150.132C111.262 149.322 110.972 148.537 110.582 147.777C110.192 147.012 109.707 146.282 109.127 145.587L109.937 144.957C110.527 145.632 111.032 146.385 111.452 147.215C111.877 148.045 112.202 148.92 112.427 149.84C112.657 150.755 112.769 151.675 112.764 152.6C112.769 153.525 112.657 154.445 112.427 155.36C112.202 156.275 111.877 157.15 111.452 157.985C111.032 158.815 110.527 159.568 109.937 160.243ZM121.014 157.992L121.021 156.987L125.904 152.577C126.324 152.197 126.601 151.837 126.736 151.497C126.876 151.152 126.946 150.792 126.946 150.417C126.946 149.972 126.841 149.57 126.631 149.21C126.421 148.85 126.139 148.565 125.784 148.355C125.429 148.14 125.031 148.032 124.591 148.032C124.131 148.032 123.721 148.142 123.361 148.362C123.001 148.582 122.716 148.872 122.506 149.232C122.301 149.592 122.201 149.985 122.206 150.41H121.081C121.081 149.755 121.236 149.167 121.546 148.647C121.856 148.127 122.276 147.72 122.806 147.425C123.336 147.125 123.936 146.975 124.606 146.975C125.261 146.975 125.849 147.13 126.369 147.44C126.894 147.745 127.306 148.16 127.606 148.685C127.911 149.205 128.064 149.785 128.064 150.425C128.064 150.875 128.009 151.272 127.899 151.617C127.794 151.957 127.626 152.275 127.396 152.57C127.171 152.86 126.884 153.16 126.534 153.47L122.199 157.385L122.026 156.935H128.064V157.992H121.014ZM133.971 158.218C133.436 158.218 132.943 158.123 132.493 157.932C132.043 157.742 131.656 157.472 131.331 157.122C131.006 156.767 130.768 156.345 130.618 155.855L131.668 155.54C131.848 156.075 132.143 156.48 132.553 156.755C132.968 157.03 133.436 157.162 133.956 157.152C134.436 157.142 134.848 157.035 135.193 156.83C135.543 156.625 135.811 156.34 135.996 155.975C136.181 155.61 136.273 155.187 136.273 154.707C136.273 153.972 136.058 153.382 135.628 152.937C135.203 152.487 134.641 152.262 133.941 152.262C133.746 152.262 133.541 152.29 133.326 152.345C133.111 152.395 132.911 152.467 132.726 152.562L132.171 151.685L136.371 147.807L136.551 148.257H131.046V147.2H137.286V148.272L133.626 151.767L133.611 151.332C134.361 151.237 135.021 151.322 135.591 151.587C136.161 151.852 136.606 152.257 136.926 152.802C137.251 153.342 137.413 153.977 137.413 154.707C137.413 155.397 137.263 156.007 136.963 156.537C136.668 157.062 136.261 157.475 135.741 157.775C135.221 158.07 134.631 158.218 133.971 158.218ZM143.747 158.225C143.187 158.225 142.669 158.11 142.194 157.88C141.719 157.65 141.314 157.332 140.979 156.927C140.644 156.522 140.404 156.057 140.259 155.532L141.317 155.247C141.412 155.637 141.584 155.975 141.834 156.26C142.084 156.54 142.377 156.757 142.712 156.912C143.052 157.067 143.407 157.145 143.777 157.145C144.257 157.145 144.687 157.03 145.067 156.8C145.452 156.565 145.757 156.255 145.982 155.87C146.207 155.485 146.319 155.062 146.319 154.602C146.319 154.127 146.202 153.7 145.967 153.32C145.732 152.935 145.422 152.63 145.037 152.405C144.652 152.18 144.232 152.067 143.777 152.067C143.267 152.067 142.827 152.18 142.457 152.405C142.087 152.625 141.792 152.902 141.572 153.237L140.567 152.817L140.897 147.2H146.664V148.257H141.384L141.932 147.74L141.639 152.532L141.362 152.165C141.672 151.81 142.047 151.532 142.487 151.332C142.927 151.132 143.389 151.032 143.874 151.032C144.539 151.032 145.139 151.192 145.674 151.512C146.209 151.827 146.634 152.255 146.949 152.795C147.264 153.335 147.422 153.937 147.422 154.602C147.422 155.262 147.254 155.867 146.919 156.417C146.584 156.962 146.139 157.4 145.584 157.73C145.029 158.06 144.417 158.225 143.747 158.225ZM157.912 158.225C157.237 158.225 156.64 158.09 156.12 157.82C155.605 157.55 155.2 157.172 154.905 156.687C154.615 156.197 154.47 155.625 154.47 154.97C154.47 154.3 154.632 153.705 154.957 153.185C155.282 152.66 155.777 152.262 156.442 151.992L156.427 152.427C155.872 152.222 155.45 151.887 155.16 151.422C154.87 150.957 154.725 150.442 154.725 149.877C154.725 149.277 154.862 148.762 155.137 148.332C155.412 147.897 155.787 147.562 156.262 147.327C156.742 147.092 157.292 146.975 157.912 146.975C158.532 146.975 159.082 147.092 159.562 147.327C160.042 147.562 160.42 147.897 160.695 148.332C160.97 148.762 161.107 149.277 161.107 149.877C161.107 150.442 160.967 150.955 160.687 151.415C160.412 151.875 159.99 152.212 159.42 152.427L159.382 151.992C160.047 152.257 160.545 152.652 160.875 153.177C161.21 153.702 161.377 154.3 161.377 154.97C161.377 155.625 161.23 156.197 160.935 156.687C160.64 157.172 160.232 157.55 159.712 157.82C159.192 158.09 158.592 158.225 157.912 158.225ZM157.912 157.167C158.592 157.167 159.145 156.98 159.57 156.605C159.995 156.225 160.207 155.68 160.207 154.97C160.207 154.25 159.997 153.705 159.577 153.335C159.157 152.96 158.602 152.772 157.912 152.772C157.222 152.772 156.67 152.96 156.255 153.335C155.84 153.705 155.632 154.25 155.632 154.97C155.632 155.68 155.842 156.225 156.262 156.605C156.682 156.98 157.232 157.167 157.912 157.167ZM157.912 151.707C158.512 151.707 159 151.555 159.375 151.25C159.75 150.94 159.937 150.482 159.937 149.877C159.937 149.272 159.75 148.82 159.375 148.52C159 148.215 158.512 148.062 157.912 148.062C157.312 148.062 156.825 148.215 156.45 148.52C156.08 148.82 155.895 149.272 155.895 149.877C155.895 150.482 156.08 150.94 156.45 151.25C156.825 151.555 157.312 151.707 157.912 151.707ZM168.076 146.982C168.756 146.982 169.371 147.147 169.921 147.477C170.476 147.802 170.916 148.247 171.241 148.812C171.566 149.372 171.728 150.002 171.728 150.702V154.452C171.728 155.172 171.566 155.817 171.241 156.387C170.916 156.957 170.471 157.407 169.906 157.737C169.346 158.063 168.708 158.225 167.993 158.225C167.378 158.225 166.808 158.09 166.283 157.82C165.763 157.545 165.333 157.167 164.993 156.687L165.833 155.99C166.063 156.345 166.368 156.63 166.748 156.845C167.133 157.06 167.548 157.167 167.993 157.167C168.503 157.167 168.953 157.047 169.343 156.807C169.738 156.562 170.048 156.242 170.273 155.847C170.503 155.447 170.618 155.015 170.618 154.55V152.195L170.888 152.51C170.578 153.005 170.166 153.405 169.651 153.71C169.141 154.015 168.581 154.167 167.971 154.167C167.306 154.167 166.703 154.007 166.163 153.687C165.628 153.367 165.203 152.937 164.888 152.397C164.578 151.857 164.423 151.255 164.423 150.59C164.423 149.925 164.588 149.32 164.918 148.775C165.248 148.225 165.691 147.79 166.246 147.47C166.801 147.145 167.411 146.982 168.076 146.982ZM168.076 148.047C167.606 148.047 167.178 148.162 166.793 148.392C166.408 148.617 166.101 148.922 165.871 149.307C165.646 149.692 165.533 150.12 165.533 150.59C165.533 151.06 165.646 151.487 165.871 151.872C166.096 152.257 166.401 152.565 166.786 152.795C167.171 153.02 167.598 153.132 168.068 153.132C168.538 153.132 168.966 153.02 169.351 152.795C169.741 152.565 170.048 152.257 170.273 151.872C170.503 151.487 170.618 151.06 170.618 150.59C170.618 150.125 170.503 149.7 170.273 149.315C170.048 148.93 169.743 148.622 169.358 148.392C168.973 148.162 168.546 148.047 168.076 148.047ZM178.547 158.225C177.882 158.225 177.282 158.07 176.747 157.76C176.217 157.45 175.797 157.03 175.487 156.5C175.177 155.965 175.022 155.365 175.022 154.7V150.5C175.022 149.835 175.177 149.237 175.487 148.707C175.797 148.172 176.217 147.75 176.747 147.44C177.282 147.13 177.882 146.975 178.547 146.975C179.212 146.975 179.81 147.13 180.34 147.44C180.875 147.75 181.297 148.172 181.607 148.707C181.917 149.237 182.072 149.835 182.072 150.5V154.7C182.072 155.365 181.917 155.965 181.607 156.5C181.297 157.03 180.875 157.45 180.34 157.76C179.81 158.07 179.212 158.225 178.547 158.225ZM178.547 157.16C178.992 157.16 179.397 157.052 179.762 156.837C180.127 156.617 180.417 156.325 180.632 155.96C180.847 155.595 180.955 155.192 180.955 154.752V150.447C180.955 150.002 180.847 149.597 180.632 149.232C180.417 148.867 180.127 148.577 179.762 148.362C179.397 148.142 178.992 148.032 178.547 148.032C178.102 148.032 177.697 148.142 177.332 148.362C176.967 148.577 176.677 148.867 176.462 149.232C176.247 149.597 176.14 150.002 176.14 150.447V154.752C176.14 155.192 176.247 155.595 176.462 155.96C176.677 156.325 176.967 156.617 177.332 156.837C177.697 157.052 178.102 157.16 178.547 157.16ZM191.463 158V148.43L189.431 149.652V148.415L191.463 147.2H192.581V158H191.463ZM196.325 157.992L196.333 156.987L201.215 152.577C201.635 152.197 201.913 151.837 202.048 151.497C202.188 151.152 202.258 150.792 202.258 150.417C202.258 149.972 202.153 149.57 201.943 149.21C201.733 148.85 201.45 148.565 201.095 148.355C200.74 148.14 200.343 148.032 199.903 148.032C199.443 148.032 199.033 148.142 198.673 148.362C198.313 148.582 198.028 148.872 197.818 149.232C197.613 149.592 197.513 149.985 197.518 150.41H196.393C196.393 149.755 196.548 149.167 196.858 148.647C197.168 148.127 197.588 147.72 198.118 147.425C198.648 147.125 199.248 146.975 199.918 146.975C200.573 146.975 201.16 147.13 201.68 147.44C202.205 147.745 202.618 148.16 202.918 148.685C203.223 149.205 203.375 149.785 203.375 150.425C203.375 150.875 203.32 151.272 203.21 151.617C203.105 151.957 202.938 152.275 202.708 152.57C202.483 152.86 202.195 153.16 201.845 153.47L197.51 157.385L197.338 156.935H203.375V157.992H196.325Z" fill="#141414"/>
<path d="M84.98 79V68.92H85.925L89.887 77.397L93.828 68.92H94.787V78.993H93.807V71.216L90.216 79H89.551L85.967 71.216V79H84.98ZM96.0515 79L99.5235 68.92H100.888L104.36 79H103.289L99.9925 69.494H100.398L97.1225 79H96.0515ZM97.5985 76.557V75.591H102.806V76.557H97.5985ZM105.765 79V68.92H106.794V79H105.765ZM109.032 79V68.92H110.061V78.013H114.849V79H109.032ZM122.082 79.21C121.312 79.21 120.631 79.0513 120.038 78.734C119.45 78.4167 118.988 77.9687 118.652 77.39C118.316 76.8113 118.148 76.1347 118.148 75.36V68.927L119.184 68.92V75.227C119.184 75.7497 119.273 76.2023 119.45 76.585C119.627 76.963 119.858 77.2757 120.143 77.523C120.432 77.7657 120.747 77.9453 121.088 78.062C121.429 78.1787 121.76 78.237 122.082 78.237C122.409 78.237 122.742 78.1787 123.083 78.062C123.424 77.9453 123.736 77.7657 124.021 77.523C124.306 77.2757 124.537 76.963 124.714 76.585C124.891 76.2023 124.98 75.7497 124.98 75.227V68.92H126.016V75.36C126.016 76.1347 125.848 76.8113 125.512 77.39C125.176 77.964 124.712 78.412 124.119 78.734C123.531 79.0513 122.852 79.21 122.082 79.21ZM131.054 79.21C130.35 79.21 129.715 79.0933 129.15 78.86C128.59 78.622 128.126 78.286 127.757 77.852C127.393 77.418 127.155 76.9023 127.043 76.305L128.093 76.13C128.261 76.7833 128.616 77.2967 129.157 77.67C129.699 78.0387 130.345 78.223 131.096 78.223C131.591 78.223 132.034 78.146 132.426 77.992C132.818 77.8333 133.126 77.6093 133.35 77.32C133.574 77.0307 133.686 76.6877 133.686 76.291C133.686 76.0297 133.64 75.808 133.546 75.626C133.453 75.4393 133.329 75.2853 133.175 75.164C133.021 75.0427 132.853 74.9423 132.671 74.863C132.489 74.779 132.312 74.7113 132.139 74.66L129.584 73.897C129.276 73.8083 128.992 73.6963 128.73 73.561C128.469 73.421 128.24 73.2553 128.044 73.064C127.853 72.868 127.704 72.6393 127.596 72.378C127.489 72.1167 127.435 71.818 127.435 71.482C127.435 70.9127 127.585 70.4203 127.883 70.005C128.182 69.5897 128.59 69.27 129.108 69.046C129.626 68.822 130.217 68.7123 130.879 68.717C131.551 68.717 132.151 68.836 132.678 69.074C133.21 69.312 133.649 69.6527 133.994 70.096C134.34 70.5347 134.568 71.055 134.68 71.657L133.602 71.853C133.532 71.4143 133.371 71.034 133.119 70.712C132.867 70.39 132.545 70.1427 132.153 69.97C131.766 69.7927 131.339 69.7017 130.872 69.697C130.42 69.697 130.016 69.774 129.661 69.928C129.311 70.0773 129.034 70.2827 128.828 70.544C128.623 70.8053 128.52 71.104 128.52 71.44C128.52 71.7807 128.614 72.0537 128.8 72.259C128.992 72.4643 129.225 72.6253 129.5 72.742C129.78 72.8587 130.051 72.9543 130.312 73.029L132.286 73.61C132.492 73.666 132.732 73.7477 133.007 73.855C133.287 73.9577 133.558 74.107 133.819 74.303C134.085 74.4943 134.305 74.7463 134.477 75.059C134.65 75.3717 134.736 75.7683 134.736 76.249C134.736 76.7157 134.643 77.1333 134.456 77.502C134.274 77.8707 134.015 78.181 133.679 78.433C133.348 78.685 132.958 78.8763 132.51 79.007C132.067 79.1423 131.582 79.21 131.054 79.21ZM139.544 77.88V76.683H140.741V77.88H139.544ZM139.551 73.757V72.56H140.748V73.757H139.551Z" fill="#141414"/>
<path d="M85.2 90.3625V89.125H86.3025V90.3625H85.2ZM85.2 100V91.9H86.3025V100H85.2ZM95.601 100V95.8675C95.601 95.4175 95.5585 95.005 95.4735 94.63C95.3885 94.25 95.251 93.92 95.061 93.64C94.876 93.355 94.6335 93.135 94.3335 92.98C94.0385 92.825 93.6785 92.7475 93.2535 92.7475C92.8635 92.7475 92.5185 92.815 92.2185 92.95C91.9235 93.085 91.6735 93.28 91.4685 93.535C91.2685 93.785 91.116 94.09 91.011 94.45C90.906 94.81 90.8535 95.22 90.8535 95.68L90.0735 95.5075C90.0735 94.6775 90.2185 93.98 90.5085 93.415C90.7985 92.85 91.1985 92.4225 91.7085 92.1325C92.2185 91.8425 92.8035 91.6975 93.4635 91.6975C93.9485 91.6975 94.371 91.7725 94.731 91.9225C95.096 92.0725 95.4035 92.275 95.6535 92.53C95.9085 92.785 96.1135 93.0775 96.2685 93.4075C96.4235 93.7325 96.536 94.08 96.606 94.45C96.676 94.815 96.711 95.18 96.711 95.545V100H95.601ZM89.7435 100V91.9H90.741V93.895H90.8535V100H89.7435ZM100.66 100V91.3C100.66 91.09 100.67 90.8825 100.69 90.6775C100.715 90.4725 100.762 90.2775 100.832 90.0925C100.902 89.9025 101.012 89.7275 101.162 89.5675C101.327 89.3875 101.507 89.2575 101.702 89.1775C101.897 89.0925 102.1 89.0375 102.31 89.0125C102.525 88.9875 102.735 88.975 102.94 88.975H103.975V89.905H103.015C102.595 89.905 102.28 90.0075 102.07 90.2125C101.865 90.4175 101.762 90.74 101.762 91.18V100H100.66ZM99.2572 92.845V91.9H103.975V92.845H99.2572ZM109.464 100.225C108.659 100.225 107.972 100.043 107.402 99.6775C106.832 99.3125 106.394 98.8075 106.089 98.1625C105.784 97.5175 105.632 96.7775 105.632 95.9425C105.632 95.0925 105.787 94.3475 106.097 93.7075C106.407 93.0675 106.847 92.57 107.417 92.215C107.992 91.855 108.674 91.675 109.464 91.675C110.274 91.675 110.964 91.8575 111.534 92.2225C112.109 92.5825 112.547 93.085 112.847 93.73C113.152 94.37 113.304 95.1075 113.304 95.9425C113.304 96.7925 113.152 97.54 112.847 98.185C112.542 98.825 112.102 99.325 111.527 99.685C110.952 100.045 110.264 100.225 109.464 100.225ZM109.464 99.1675C110.364 99.1675 111.034 98.87 111.474 98.275C111.914 97.675 112.134 96.8975 112.134 95.9425C112.134 94.9625 111.912 94.1825 111.467 93.6025C111.027 93.0225 110.359 92.7325 109.464 92.7325C108.859 92.7325 108.359 92.87 107.964 93.145C107.574 93.415 107.282 93.7925 107.087 94.2775C106.897 94.7575 106.802 95.3125 106.802 95.9425C106.802 96.9175 107.027 97.7 107.477 98.29C107.927 98.875 108.589 99.1675 109.464 99.1675ZM121.911 101.575C121.111 101.575 120.371 101.435 119.691 101.155C119.011 100.88 118.419 100.495 117.914 100C117.409 99.5 117.014 98.9125 116.729 98.2375C116.449 97.5625 116.309 96.8275 116.309 96.0325C116.309 95.1875 116.446 94.4175 116.721 93.7225C116.996 93.0225 117.384 92.42 117.884 91.915C118.389 91.405 118.986 91.0125 119.676 90.7375C120.366 90.4625 121.124 90.325 121.949 90.325C122.894 90.325 123.719 90.4775 124.424 90.7825C125.134 91.0825 125.719 91.4925 126.179 92.0125C126.639 92.5275 126.974 93.1075 127.184 93.7525C127.399 94.3975 127.489 95.065 127.454 95.755C127.404 96.7 127.179 97.4125 126.779 97.8925C126.384 98.3725 125.831 98.6125 125.121 98.6125C124.661 98.6125 124.261 98.505 123.921 98.29C123.581 98.075 123.354 97.7725 123.239 97.3825L123.599 97.42C123.424 97.775 123.161 98.0325 122.811 98.1925C122.466 98.3525 122.106 98.4325 121.731 98.4325C121.276 98.4325 120.876 98.335 120.531 98.14C120.191 97.94 119.924 97.665 119.729 97.315C119.539 96.965 119.444 96.56 119.444 96.1C119.444 95.62 119.544 95.205 119.744 94.855C119.944 94.505 120.219 94.235 120.569 94.045C120.919 93.855 121.314 93.76 121.754 93.76C122.079 93.76 122.414 93.8275 122.759 93.9625C123.109 94.0975 123.376 94.3175 123.561 94.6225L123.269 94.9525V93.97H124.064L124.056 96.4075C124.056 96.7775 124.141 97.08 124.311 97.315C124.486 97.545 124.774 97.66 125.174 97.66C125.444 97.66 125.669 97.585 125.849 97.435C126.034 97.285 126.176 97.075 126.276 96.805C126.376 96.53 126.434 96.2075 126.449 95.8375C126.479 95.0775 126.381 94.4125 126.156 93.8425C125.931 93.2725 125.611 92.7975 125.196 92.4175C124.781 92.0325 124.299 91.745 123.749 91.555C123.204 91.365 122.621 91.27 122.001 91.27C121.251 91.27 120.584 91.395 119.999 91.645C119.419 91.895 118.926 92.24 118.521 92.68C118.121 93.12 117.819 93.6275 117.614 94.2025C117.409 94.7725 117.311 95.38 117.321 96.025C117.326 96.69 117.446 97.305 117.681 97.87C117.921 98.43 118.251 98.9175 118.671 99.3325C119.091 99.7425 119.581 100.06 120.141 100.285C120.701 100.515 121.309 100.63 121.964 100.63C122.389 100.63 122.814 100.575 123.239 100.465C123.669 100.355 124.051 100.203 124.386 100.008L124.739 100.848C124.304 101.093 123.846 101.275 123.366 101.395C122.886 101.515 122.401 101.575 121.911 101.575ZM121.791 97.4725C122.181 97.4725 122.499 97.36 122.744 97.135C122.994 96.91 123.119 96.5625 123.119 96.0925C123.119 95.6325 122.999 95.285 122.759 95.05C122.524 94.815 122.209 94.6975 121.814 94.6975C121.364 94.6975 121.019 94.82 120.779 95.065C120.544 95.31 120.426 95.6525 120.426 96.0925C120.426 96.5375 120.549 96.88 120.794 97.12C121.039 97.355 121.371 97.4725 121.791 97.4725ZM134.546 100.225C133.801 100.225 133.171 100.038 132.656 99.6625C132.141 99.2825 131.751 98.77 131.486 98.125C131.221 97.475 131.088 96.7475 131.088 95.9425C131.088 95.1225 131.221 94.3925 131.486 93.7525C131.756 93.1075 132.151 92.6 132.671 92.23C133.191 91.86 133.831 91.675 134.591 91.675C135.331 91.675 135.966 91.8625 136.496 92.2375C137.026 92.6125 137.431 93.1225 137.711 93.7675C137.996 94.4125 138.138 95.1375 138.138 95.9425C138.138 96.7525 137.996 97.48 137.711 98.125C137.426 98.77 137.016 99.2825 136.481 99.6625C135.946 100.038 135.301 100.225 134.546 100.225ZM130.901 100V89.2H132.011V93.9025H131.891V100H130.901ZM134.433 99.1975C134.998 99.1975 135.468 99.055 135.843 98.77C136.218 98.485 136.498 98.0975 136.683 97.6075C136.873 97.1125 136.968 96.5575 136.968 95.9425C136.968 95.3325 136.876 94.7825 136.691 94.2925C136.506 93.8025 136.223 93.415 135.843 93.13C135.468 92.845 134.991 92.7025 134.411 92.7025C133.846 92.7025 133.376 92.84 133.001 93.115C132.631 93.39 132.353 93.7725 132.168 94.2625C131.983 94.7475 131.891 95.3075 131.891 95.9425C131.891 96.5675 131.983 97.1275 132.168 97.6225C132.353 98.1125 132.633 98.4975 133.008 98.7775C133.383 99.0575 133.858 99.1975 134.433 99.1975ZM144.413 100.225C143.623 100.225 142.938 100.05 142.358 99.7C141.783 99.35 141.335 98.8575 141.015 98.2225C140.695 97.5875 140.535 96.8425 140.535 95.9875C140.535 95.1025 140.693 94.3375 141.008 93.6925C141.323 93.0475 141.765 92.55 142.335 92.2C142.91 91.85 143.588 91.675 144.368 91.675C145.168 91.675 145.85 91.86 146.415 92.23C146.98 92.595 147.408 93.12 147.698 93.805C147.988 94.49 148.12 95.3075 148.095 96.2575H146.97V95.8675C146.95 94.8175 146.723 94.025 146.288 93.49C145.858 92.955 145.228 92.6875 144.398 92.6875C143.528 92.6875 142.86 92.97 142.395 93.535C141.935 94.1 141.705 94.905 141.705 95.95C141.705 96.97 141.935 97.7625 142.395 98.3275C142.86 98.8875 143.518 99.1675 144.368 99.1675C144.948 99.1675 145.453 99.035 145.883 98.77C146.318 98.5 146.66 98.1125 146.91 97.6075L147.938 98.005C147.618 98.71 147.145 99.2575 146.52 99.6475C145.9 100.033 145.198 100.225 144.413 100.225ZM141.315 96.2575V95.335H147.503V96.2575H141.315ZM153.131 100.225C152.521 100.225 152.008 100.115 151.593 99.895C151.183 99.675 150.876 99.3825 150.671 99.0175C150.466 98.6525 150.363 98.255 150.363 97.825C150.363 97.385 150.451 97.01 150.626 96.7C150.806 96.385 151.048 96.1275 151.353 95.9275C151.663 95.7275 152.021 95.575 152.426 95.47C152.836 95.37 153.288 95.2825 153.783 95.2075C154.283 95.1275 154.771 95.06 155.246 95.005C155.726 94.945 156.146 94.8875 156.506 94.8325L156.116 95.0725C156.131 94.2725 155.976 93.68 155.651 93.295C155.326 92.91 154.761 92.7175 153.956 92.7175C153.401 92.7175 152.931 92.8425 152.546 93.0925C152.166 93.3425 151.898 93.7375 151.743 94.2775L150.671 93.9625C150.856 93.2375 151.228 92.675 151.788 92.275C152.348 91.875 153.076 91.675 153.971 91.675C154.711 91.675 155.338 91.815 155.853 92.095C156.373 92.37 156.741 92.77 156.956 93.295C157.056 93.53 157.121 93.7925 157.151 94.0825C157.181 94.3725 157.196 94.6675 157.196 94.9675V100H156.213V97.9675L156.498 98.0875C156.223 98.7825 155.796 99.3125 155.216 99.6775C154.636 100.043 153.941 100.225 153.131 100.225ZM153.258 99.2725C153.773 99.2725 154.223 99.18 154.608 98.995C154.993 98.81 155.303 98.5575 155.538 98.2375C155.773 97.9125 155.926 97.5475 155.996 97.1425C156.056 96.8825 156.088 96.5975 156.093 96.2875C156.098 95.9725 156.101 95.7375 156.101 95.5825L156.521 95.8C156.146 95.85 155.738 95.9 155.298 95.95C154.863 96 154.433 96.0575 154.008 96.1225C153.588 96.1875 153.208 96.265 152.868 96.355C152.638 96.42 152.416 96.5125 152.201 96.6325C151.986 96.7475 151.808 96.9025 151.668 97.0975C151.533 97.2925 151.466 97.535 151.466 97.825C151.466 98.06 151.523 98.2875 151.638 98.5075C151.758 98.7275 151.948 98.91 152.208 99.055C152.473 99.2 152.823 99.2725 153.258 99.2725ZM163.446 100.203C162.961 100.203 162.536 100.128 162.171 99.9775C161.811 99.8275 161.503 99.625 161.248 99.37C160.998 99.115 160.796 98.825 160.641 98.5C160.486 98.17 160.373 97.8225 160.303 97.4575C160.233 97.0875 160.198 96.72 160.198 96.355V91.9H161.308V96.0325C161.308 96.4775 161.351 96.89 161.436 97.27C161.521 97.65 161.656 97.9825 161.841 98.2675C162.031 98.5475 162.273 98.765 162.568 98.92C162.868 99.075 163.231 99.1525 163.656 99.1525C164.046 99.1525 164.388 99.085 164.683 98.95C164.983 98.815 165.233 98.6225 165.433 98.3725C165.638 98.1175 165.793 97.81 165.898 97.45C166.003 97.085 166.056 96.675 166.056 96.22L166.836 96.3925C166.836 97.2225 166.691 97.92 166.401 98.485C166.111 99.05 165.711 99.4775 165.201 99.7675C164.691 100.058 164.106 100.203 163.446 100.203ZM166.168 100V98.005H166.056V91.9H167.158V100H166.168ZM174.864 100C174.409 100.095 173.959 100.133 173.514 100.113C173.074 100.093 172.679 99.9975 172.329 99.8275C171.984 99.6575 171.722 99.3925 171.542 99.0325C171.397 98.7325 171.317 98.43 171.302 98.125C171.292 97.815 171.287 97.4625 171.287 97.0675V89.65H172.382V97.0225C172.382 97.3625 172.384 97.6475 172.389 97.8775C172.399 98.1025 172.452 98.3025 172.547 98.4775C172.727 98.8125 173.012 99.0125 173.402 99.0775C173.797 99.1425 174.284 99.1275 174.864 99.0325V100ZM169.554 92.845V91.9H174.864V92.845H169.554ZM178.596 103.6L180.163 99.3475L180.186 100.608L176.638 91.9H177.808L180.718 99.1825H180.238L182.923 91.9H184.048L179.698 103.6H178.596ZM192.401 100V95.8675C192.401 95.4175 192.358 95.005 192.273 94.63C192.188 94.25 192.051 93.92 191.861 93.64C191.676 93.355 191.433 93.135 191.133 92.98C190.838 92.825 190.478 92.7475 190.053 92.7475C189.663 92.7475 189.318 92.815 189.018 92.95C188.723 93.085 188.473 93.28 188.268 93.535C188.068 93.785 187.916 94.09 187.811 94.45C187.706 94.81 187.653 95.22 187.653 95.68L186.873 95.5075C186.873 94.6775 187.018 93.98 187.308 93.415C187.598 92.85 187.998 92.4225 188.508 92.1325C189.018 91.8425 189.603 91.6975 190.263 91.6975C190.748 91.6975 191.171 91.7725 191.531 91.9225C191.896 92.0725 192.203 92.275 192.453 92.53C192.708 92.785 192.913 93.0775 193.068 93.4075C193.223 93.7325 193.336 94.08 193.406 94.45C193.476 94.815 193.511 95.18 193.511 95.545V100H192.401ZM186.543 100V91.9H187.541V93.895H187.653V100H186.543ZM200.041 100.225C199.251 100.225 198.566 100.05 197.986 99.7C197.411 99.35 196.963 98.8575 196.643 98.2225C196.323 97.5875 196.163 96.8425 196.163 95.9875C196.163 95.1025 196.321 94.3375 196.636 93.6925C196.951 93.0475 197.393 92.55 197.963 92.2C198.538 91.85 199.216 91.675 199.996 91.675C200.796 91.675 201.478 91.86 202.043 92.23C202.608 92.595 203.036 93.12 203.326 93.805C203.616 94.49 203.748 95.3075 203.723 96.2575H202.598V95.8675C202.578 94.8175 202.351 94.025 201.916 93.49C201.486 92.955 200.856 92.6875 200.026 92.6875C199.156 92.6875 198.488 92.97 198.023 93.535C197.563 94.1 197.333 94.905 197.333 95.95C197.333 96.97 197.563 97.7625 198.023 98.3275C198.488 98.8875 199.146 99.1675 199.996 99.1675C200.576 99.1675 201.081 99.035 201.511 98.77C201.946 98.5 202.288 98.1125 202.538 97.6075L203.566 98.005C203.246 98.71 202.773 99.2575 202.148 99.6475C201.528 100.033 200.826 100.225 200.041 100.225ZM196.943 96.2575V95.335H203.131V96.2575H196.943ZM209.61 100.218C208.66 100.218 207.877 100.012 207.262 99.6025C206.652 99.1925 206.277 98.6225 206.137 97.8925L207.262 97.705C207.382 98.165 207.655 98.5325 208.08 98.8075C208.51 99.0775 209.04 99.2125 209.67 99.2125C210.285 99.2125 210.77 99.085 211.125 98.83C211.48 98.57 211.657 98.2175 211.657 97.7725C211.657 97.5225 211.6 97.32 211.485 97.165C211.375 97.005 211.147 96.8575 210.802 96.7225C210.457 96.5875 209.942 96.4275 209.257 96.2425C208.522 96.0425 207.947 95.8425 207.532 95.6425C207.117 95.4425 206.822 95.2125 206.647 94.9525C206.472 94.6875 206.385 94.365 206.385 93.985C206.385 93.525 206.515 93.1225 206.775 92.7775C207.035 92.4275 207.395 92.1575 207.855 91.9675C208.315 91.7725 208.85 91.675 209.46 91.675C210.07 91.675 210.615 91.775 211.095 91.975C211.58 92.17 211.97 92.445 212.265 92.8C212.56 93.155 212.735 93.5675 212.79 94.0375L211.665 94.24C211.59 93.765 211.352 93.39 210.952 93.115C210.557 92.835 210.055 92.69 209.445 92.68C208.87 92.665 208.402 92.775 208.042 93.01C207.682 93.24 207.502 93.5475 207.502 93.9325C207.502 94.1475 207.567 94.3325 207.697 94.4875C207.827 94.6375 208.062 94.78 208.402 94.915C208.747 95.05 209.237 95.1975 209.872 95.3575C210.617 95.5475 211.202 95.7475 211.627 95.9575C212.052 96.1675 212.355 96.415 212.535 96.7C212.715 96.985 212.805 97.3375 212.805 97.7575C212.805 98.5225 212.52 99.125 211.95 99.565C211.385 100 210.605 100.218 209.61 100.218ZM218.691 100.218C217.741 100.218 216.958 100.012 216.343 99.6025C215.733 99.1925 215.358 98.6225 215.218 97.8925L216.343 97.705C216.463 98.165 216.736 98.5325 217.161 98.8075C217.591 99.0775 218.121 99.2125 218.751 99.2125C219.366 99.2125 219.851 99.085 220.206 98.83C220.561 98.57 220.738 98.2175 220.738 97.7725C220.738 97.5225 220.681 97.32 220.566 97.165C220.456 97.005 220.228 96.8575 219.883 96.7225C219.538 96.5875 219.023 96.4275 218.338 96.2425C217.603 96.0425 217.028 95.8425 216.613 95.6425C216.198 95.4425 215.903 95.2125 215.728 94.9525C215.553 94.6875 215.466 94.365 215.466 93.985C215.466 93.525 215.596 93.1225 215.856 92.7775C216.116 92.4275 216.476 92.1575 216.936 91.9675C217.396 91.7725 217.931 91.675 218.541 91.675C219.151 91.675 219.696 91.775 220.176 91.975C220.661 92.17 221.051 92.445 221.346 92.8C221.641 93.155 221.816 93.5675 221.871 94.0375L220.746 94.24C220.671 93.765 220.433 93.39 220.033 93.115C219.638 92.835 219.136 92.69 218.526 92.68C217.951 92.665 217.483 92.775 217.123 93.01C216.763 93.24 216.583 93.5475 216.583 93.9325C216.583 94.1475 216.648 94.3325 216.778 94.4875C216.908 94.6375 217.143 94.78 217.483 94.915C217.828 95.05 218.318 95.1975 218.953 95.3575C219.698 95.5475 220.283 95.7475 220.708 95.9575C221.133 96.1675 221.436 96.415 221.616 96.7C221.796 96.985 221.886 97.3375 221.886 97.7575C221.886 98.5225 221.601 99.125 221.031 99.565C220.466 100 219.686 100.218 218.691 100.218ZM224.959 100V98.7175H226.242V100H224.959ZM233.118 100.225C232.303 100.225 231.613 100.043 231.048 99.6775C230.483 99.3125 230.053 98.81 229.758 98.17C229.468 97.525 229.318 96.785 229.308 95.95C229.318 95.1 229.473 94.355 229.773 93.715C230.073 93.07 230.505 92.57 231.07 92.215C231.635 91.855 232.32 91.675 233.125 91.675C233.945 91.675 234.658 91.875 235.263 92.275C235.873 92.675 236.29 93.2225 236.515 93.9175L235.435 94.2625C235.245 93.7775 234.943 93.4025 234.528 93.1375C234.118 92.8675 233.648 92.7325 233.118 92.7325C232.523 92.7325 232.03 92.87 231.64 93.145C231.25 93.415 230.96 93.7925 230.77 94.2775C230.58 94.7625 230.483 95.32 230.478 95.95C230.488 96.92 230.713 97.7 231.153 98.29C231.593 98.875 232.248 99.1675 233.118 99.1675C233.668 99.1675 234.135 99.0425 234.52 98.7925C234.91 98.5375 235.205 98.1675 235.405 97.6825L236.515 98.0125C236.215 98.7325 235.775 99.2825 235.195 99.6625C234.615 100.038 233.923 100.225 233.118 100.225ZM242.426 100.225C241.621 100.225 240.934 100.043 240.364 99.6775C239.794 99.3125 239.356 98.8075 239.051 98.1625C238.746 97.5175 238.594 96.7775 238.594 95.9425C238.594 95.0925 238.749 94.3475 239.059 93.7075C239.369 93.0675 239.809 92.57 240.379 92.215C240.954 91.855 241.636 91.675 242.426 91.675C243.236 91.675 243.926 91.8575 244.496 92.2225C245.071 92.5825 245.509 93.085 245.809 93.73C246.114 94.37 246.266 95.1075 246.266 95.9425C246.266 96.7925 246.114 97.54 245.809 98.185C245.504 98.825 245.064 99.325 244.489 99.685C243.914 100.045 243.226 100.225 242.426 100.225ZM242.426 99.1675C243.326 99.1675 243.996 98.87 244.436 98.275C244.876 97.675 245.096 96.8975 245.096 95.9425C245.096 94.9625 244.874 94.1825 244.429 93.6025C243.989 93.0225 243.321 92.7325 242.426 92.7325C241.821 92.7325 241.321 92.87 240.926 93.145C240.536 93.415 240.244 93.7925 240.049 94.2775C239.859 94.7575 239.764 95.3125 239.764 95.9425C239.764 96.9175 239.989 97.7 240.439 98.29C240.889 98.875 241.551 99.1675 242.426 99.1675ZM258.781 100L258.788 94.6825C258.788 94.0575 258.613 93.5675 258.263 93.2125C257.918 92.8525 257.478 92.6725 256.943 92.6725C256.638 92.6725 256.341 92.7425 256.051 92.8825C255.761 93.0225 255.521 93.2475 255.331 93.5575C255.146 93.8675 255.053 94.2725 255.053 94.7725L254.401 94.585C254.386 94.005 254.498 93.4975 254.738 93.0625C254.983 92.6275 255.318 92.29 255.743 92.05C256.173 91.805 256.658 91.6825 257.198 91.6825C258.013 91.6825 258.666 91.935 259.156 92.44C259.646 92.94 259.891 93.6175 259.891 94.4725L259.883 100H258.781ZM249.113 100V91.9H250.103V93.895H250.223V100H249.113ZM253.958 100L253.966 94.7575C253.966 94.1125 253.793 93.605 253.448 93.235C253.108 92.86 252.658 92.6725 252.098 92.6725C251.538 92.6725 251.086 92.865 250.741 93.25C250.396 93.63 250.223 94.1375 250.223 94.7725L249.563 94.4125C249.563 93.8925 249.686 93.4275 249.931 93.0175C250.176 92.6025 250.511 92.2775 250.936 92.0425C251.361 91.8025 251.843 91.6825 252.383 91.6825C252.898 91.6825 253.356 91.7925 253.756 92.0125C254.161 92.2325 254.478 92.5525 254.708 92.9725C254.938 93.3925 255.053 93.9025 255.053 94.5025L255.046 100H253.958Z" fill="#141414"/>
<path d="M61 78C62.6569 78 64 76.6569 64 75C64 73.3431 62.6569 72 61 72C59.3431 72 58 73.3431 58 75C58 76.6569 59.3431 78 61 78Z" fill="#5C8692"/>
<path d="M49 78C50.6569 78 52 76.6569 52 75C52 73.3431 50.6569 72 49 72C47.3431 72 46 73.3431 46 75C46 76.6569 47.3431 78 49 78Z" fill="#5C8692"/>
<path d="M37 78C38.6569 78 40 76.6569 40 75C40 73.3431 38.6569 72 37 72C35.3431 72 34 73.3431 34 75C34 76.6569 35.3431 78 37 78Z" fill="#5C8692"/>
<rect x="2" y="202.672" width="301.812" height="2" fill="#5C8692"/>
<path d="M304 30H498V203H304V30Z" fill="#1E2C30"/>
<path d="M352.369 64.7475V63.8025H356.869V64.7475H352.369ZM369.148 69.225C368.388 69.225 367.703 69.0925 367.093 68.8275C366.483 68.5625 365.963 68.185 365.533 67.695C365.108 67.205 364.783 66.615 364.558 65.925C364.333 65.23 364.221 64.455 364.221 63.6C364.221 62.47 364.416 61.485 364.806 60.645C365.201 59.8 365.766 59.145 366.501 58.68C367.236 58.215 368.118 57.9825 369.148 57.9825C370.298 57.9825 371.233 58.2525 371.953 58.7925C372.678 59.3275 373.183 60.0475 373.468 60.9525L372.358 61.2225C372.123 60.5625 371.736 60.035 371.196 59.64C370.661 59.245 369.993 59.0475 369.193 59.0475C368.348 59.0425 367.646 59.2325 367.086 59.6175C366.526 59.9975 366.103 60.5325 365.818 61.2225C365.538 61.9075 365.396 62.7 365.391 63.6C365.386 64.5 365.523 65.2925 365.803 65.9775C366.088 66.6575 366.513 67.1925 367.078 67.5825C367.643 67.9675 368.348 68.1625 369.193 68.1675C369.968 68.1675 370.608 68.0175 371.113 67.7175C371.618 67.4175 372.001 66.9875 372.261 66.4275C372.526 65.8675 372.676 65.205 372.711 64.44H370.221V63.495H373.866C373.881 63.61 373.888 63.7325 373.888 63.8625C373.893 63.9875 373.896 64.0775 373.896 64.1325C373.896 65.1075 373.721 65.98 373.371 66.75C373.021 67.515 372.493 68.12 371.788 68.565C371.088 69.005 370.208 69.225 369.148 69.225ZM376.897 69V58.2H383.647V59.2575H377.999V62.9925H382.747V64.05H377.999V67.9425H383.647V69H376.897ZM389.824 69V59.2575H386.051V58.2H394.699V59.2575H390.926V69H389.824ZM401.45 69V58.2H407.653V59.3025H402.553V63.0525H406.753V64.1475H402.553V69H401.45ZM410.659 69V58.2H411.761V67.9425H416.891V69H410.659ZM418.92 69L422.64 58.2H424.103L427.823 69H426.675L423.143 58.815H423.578L420.068 69H418.92ZM420.578 66.3825V65.3475H426.158V66.3825H420.578ZM432.656 69V59.2575H428.883V58.2H437.531V59.2575H433.758V69H432.656ZM444.132 64.7475V63.8025H448.632V64.7475H444.132Z" fill="white"/>
<path d="M358.115 172V159.04H362.048C362.186 159.04 362.42 159.043 362.75 159.049C363.086 159.055 363.407 159.079 363.713 159.121C364.697 159.259 365.519 159.625 366.179 160.219C366.839 160.813 367.334 161.569 367.664 162.487C367.994 163.405 368.159 164.416 368.159 165.52C368.159 166.624 367.994 167.635 367.664 168.553C367.334 169.471 366.839 170.227 366.179 170.821C365.519 171.415 364.697 171.781 363.713 171.919C363.413 171.955 363.092 171.979 362.75 171.991C362.408 171.997 362.174 172 362.048 172H358.115ZM359.483 170.731H362.048C362.294 170.731 362.558 170.725 362.84 170.713C363.128 170.695 363.374 170.665 363.578 170.623C364.334 170.491 364.943 170.185 365.405 169.705C365.873 169.225 366.215 168.625 366.431 167.905C366.647 167.179 366.755 166.384 366.755 165.52C366.755 164.65 366.647 163.852 366.431 163.126C366.215 162.4 365.873 161.8 365.405 161.326C364.937 160.852 364.328 160.549 363.578 160.417C363.374 160.375 363.125 160.348 362.831 160.336C362.543 160.318 362.282 160.309 362.048 160.309H359.483V170.731ZM372.189 160.435V158.95H373.512V160.435H372.189ZM372.189 172V162.28H373.512V172H372.189ZM381.637 172.261C380.497 172.261 379.558 172.015 378.82 171.523C378.088 171.031 377.638 170.347 377.47 169.471L378.82 169.246C378.964 169.798 379.291 170.239 379.801 170.569C380.317 170.893 380.953 171.055 381.709 171.055C382.447 171.055 383.029 170.902 383.455 170.596C383.881 170.284 384.094 169.861 384.094 169.327C384.094 169.027 384.025 168.784 383.887 168.598C383.755 168.406 383.482 168.229 383.068 168.067C382.654 167.905 382.036 167.713 381.214 167.491C380.332 167.251 379.642 167.011 379.144 166.771C378.646 166.531 378.292 166.255 378.082 165.943C377.872 165.625 377.767 165.238 377.767 164.782C377.767 164.23 377.923 163.747 378.235 163.333C378.547 162.913 378.979 162.589 379.531 162.361C380.083 162.127 380.725 162.01 381.457 162.01C382.189 162.01 382.843 162.13 383.419 162.37C384.001 162.604 384.469 162.934 384.823 163.36C385.177 163.786 385.387 164.281 385.453 164.845L384.103 165.088C384.013 164.518 383.728 164.068 383.248 163.738C382.774 163.402 382.171 163.228 381.439 163.216C380.749 163.198 380.188 163.33 379.756 163.612C379.324 163.888 379.108 164.257 379.108 164.719C379.108 164.977 379.186 165.199 379.342 165.385C379.498 165.565 379.78 165.736 380.188 165.898C380.602 166.06 381.19 166.237 381.952 166.429C382.846 166.657 383.548 166.897 384.058 167.149C384.568 167.401 384.931 167.698 385.147 168.04C385.363 168.382 385.471 168.805 385.471 169.309C385.471 170.227 385.129 170.95 384.445 171.478C383.767 172 382.831 172.261 381.637 172.261ZM393.299 172.27C392.321 172.27 391.493 172.051 390.815 171.613C390.137 171.175 389.621 170.572 389.267 169.804C388.919 169.03 388.739 168.142 388.727 167.14C388.739 166.12 388.925 165.226 389.285 164.458C389.645 163.684 390.164 163.084 390.842 162.658C391.52 162.226 392.342 162.01 393.308 162.01C394.292 162.01 395.147 162.25 395.873 162.73C396.605 163.21 397.106 163.867 397.376 164.701L396.08 165.115C395.852 164.533 395.489 164.083 394.991 163.765C394.499 163.441 393.935 163.279 393.299 163.279C392.585 163.279 391.994 163.444 391.526 163.774C391.058 164.098 390.71 164.551 390.482 165.133C390.254 165.715 390.137 166.384 390.131 167.14C390.143 168.304 390.413 169.24 390.941 169.948C391.469 170.65 392.255 171.001 393.299 171.001C393.959 171.001 394.52 170.851 394.982 170.551C395.45 170.245 395.804 169.801 396.044 169.219L397.376 169.615C397.016 170.479 396.488 171.139 395.792 171.595C395.096 172.045 394.265 172.27 393.299 172.27ZM404.829 172.27C403.863 172.27 403.038 172.051 402.354 171.613C401.67 171.175 401.145 170.569 400.779 169.795C400.413 169.021 400.23 168.133 400.23 167.131C400.23 166.111 400.416 165.217 400.788 164.449C401.16 163.681 401.688 163.084 402.372 162.658C403.062 162.226 403.881 162.01 404.829 162.01C405.801 162.01 406.629 162.229 407.313 162.667C408.003 163.099 408.528 163.702 408.888 164.476C409.254 165.244 409.437 166.129 409.437 167.131C409.437 168.151 409.254 169.048 408.888 169.822C408.522 170.59 407.994 171.19 407.304 171.622C406.614 172.054 405.789 172.27 404.829 172.27ZM404.829 171.001C405.909 171.001 406.713 170.644 407.241 169.93C407.769 169.21 408.033 168.277 408.033 167.131C408.033 165.955 407.766 165.019 407.232 164.323C406.704 163.627 405.903 163.279 404.829 163.279C404.103 163.279 403.503 163.444 403.029 163.774C402.561 164.098 402.21 164.551 401.976 165.133C401.748 165.709 401.634 166.375 401.634 167.131C401.634 168.301 401.904 169.24 402.444 169.948C402.984 170.65 403.779 171.001 404.829 171.001ZM416.94 172.243C416.358 172.243 415.848 172.153 415.41 171.973C414.978 171.793 414.609 171.55 414.303 171.244C414.003 170.938 413.76 170.59 413.574 170.2C413.388 169.804 413.253 169.387 413.169 168.949C413.085 168.505 413.043 168.064 413.043 167.626V162.28H414.375V167.239C414.375 167.773 414.426 168.268 414.528 168.724C414.63 169.18 414.792 169.579 415.014 169.921C415.242 170.257 415.533 170.518 415.887 170.704C416.247 170.89 416.682 170.983 417.192 170.983C417.66 170.983 418.071 170.902 418.425 170.74C418.785 170.578 419.085 170.347 419.325 170.047C419.571 169.741 419.757 169.372 419.883 168.94C420.009 168.502 420.072 168.01 420.072 167.464L421.008 167.671C421.008 168.667 420.834 169.504 420.486 170.182C420.138 170.86 419.658 171.373 419.046 171.721C418.434 172.069 417.732 172.243 416.94 172.243ZM420.207 172V169.606H420.072V162.28H421.395V172H420.207ZM432.73 172V167.041C432.73 166.501 432.679 166.006 432.577 165.556C432.475 165.1 432.31 164.704 432.082 164.368C431.86 164.026 431.569 163.762 431.209 163.576C430.855 163.39 430.423 163.297 429.913 163.297C429.445 163.297 429.031 163.378 428.671 163.54C428.317 163.702 428.017 163.936 427.771 164.242C427.531 164.542 427.348 164.908 427.222 165.34C427.096 165.772 427.033 166.264 427.033 166.816L426.097 166.609C426.097 165.613 426.271 164.776 426.619 164.098C426.967 163.42 427.447 162.907 428.059 162.559C428.671 162.211 429.373 162.037 430.165 162.037C430.747 162.037 431.254 162.127 431.686 162.307C432.124 162.487 432.493 162.73 432.793 163.036C433.099 163.342 433.345 163.693 433.531 164.089C433.717 164.479 433.852 164.896 433.936 165.34C434.02 165.778 434.062 166.216 434.062 166.654V172H432.73ZM425.701 172V162.28H426.898V164.674H427.033V172H425.701ZM443.49 172C442.944 172.114 442.404 172.159 441.87 172.135C441.342 172.111 440.868 171.997 440.448 171.793C440.034 171.589 439.719 171.271 439.503 170.839C439.329 170.479 439.233 170.116 439.215 169.75C439.203 169.378 439.197 168.955 439.197 168.481V159.58H440.511V168.427C440.511 168.835 440.514 169.177 440.52 169.453C440.532 169.723 440.595 169.963 440.709 170.173C440.925 170.575 441.267 170.815 441.735 170.893C442.209 170.971 442.794 170.953 443.49 170.839V172ZM437.118 163.414V162.28H443.49V163.414H437.118Z" fill="white"/>
<path d="M350.694 133.975C348.268 133.975 346.025 133.477 343.967 132.48C341.908 131.483 340.153 130.107 338.702 128.352C337.25 126.597 336.21 124.582 335.582 122.307L340.164 121.072C340.576 122.762 341.323 124.225 342.407 125.46C343.49 126.673 344.758 127.616 346.209 128.287C347.683 128.959 349.221 129.295 350.824 129.295C352.904 129.295 354.768 128.797 356.414 127.8C358.083 126.782 359.404 125.438 360.379 123.77C361.354 122.102 361.842 120.271 361.842 118.277C361.842 116.219 361.333 114.367 360.314 112.72C359.296 111.052 357.953 109.73 356.284 108.755C354.616 107.78 352.796 107.292 350.824 107.292C348.614 107.292 346.708 107.78 345.104 108.755C343.501 109.708 342.223 110.911 341.269 112.362L336.914 110.542L338.344 86.2H363.337V90.7825H340.457L342.829 88.54L341.562 109.307L340.359 107.715C341.703 106.177 343.328 104.974 345.234 104.107C347.141 103.241 349.145 102.807 351.247 102.807C354.128 102.807 356.728 103.501 359.047 104.887C361.365 106.252 363.207 108.105 364.572 110.445C365.937 112.785 366.619 115.396 366.619 118.277C366.619 121.137 365.893 123.759 364.442 126.142C362.99 128.504 361.062 130.4 358.657 131.83C356.252 133.26 353.598 133.975 350.694 133.975ZM390.451 133.975C387.57 133.975 384.97 133.303 382.651 131.96C380.355 130.617 378.535 128.797 377.191 126.5C375.848 124.182 375.176 121.582 375.176 118.7V100.5C375.176 97.6183 375.848 95.0292 377.191 92.7325C378.535 90.4142 380.355 88.5833 382.651 87.24C384.97 85.8967 387.57 85.225 390.451 85.225C393.333 85.225 395.922 85.8967 398.219 87.24C400.537 88.5833 402.368 90.4142 403.711 92.7325C405.055 95.0292 405.726 97.6183 405.726 100.5V118.7C405.726 121.582 405.055 124.182 403.711 126.5C402.368 128.797 400.537 130.617 398.219 131.96C395.922 133.303 393.333 133.975 390.451 133.975ZM390.451 129.36C392.38 129.36 394.135 128.894 395.716 127.962C397.298 127.009 398.555 125.742 399.486 124.16C400.418 122.578 400.884 120.834 400.884 118.927V100.272C400.884 98.3442 400.418 96.5892 399.486 95.0075C398.555 93.4258 397.298 92.1692 395.716 91.2375C394.135 90.2842 392.38 89.8075 390.451 89.8075C388.523 89.8075 386.768 90.2842 385.186 91.2375C383.605 92.1692 382.348 93.4258 381.416 95.0075C380.485 96.5892 380.019 98.3442 380.019 100.272V118.927C380.019 120.834 380.485 122.578 381.416 124.16C382.348 125.742 383.605 127.009 385.186 127.962C386.768 128.894 388.523 129.36 390.451 129.36ZM420.179 133L416.929 129.75L460.577 86.2L463.827 89.4175L420.179 133ZM454.077 133.975C451.932 133.975 449.971 133.455 448.194 132.415C446.439 131.353 445.031 129.945 443.969 128.19C442.908 126.413 442.377 124.442 442.377 122.275C442.377 120.152 442.918 118.202 444.002 116.425C445.085 114.648 446.515 113.229 448.292 112.167C450.068 111.106 451.997 110.575 454.077 110.575C456.222 110.575 458.183 111.106 459.959 112.167C461.736 113.207 463.144 114.616 464.184 116.392C465.246 118.147 465.777 120.108 465.777 122.275C465.777 124.442 465.246 126.413 464.184 128.19C463.144 129.945 461.736 131.353 459.959 132.415C458.183 133.455 456.222 133.975 454.077 133.975ZM454.077 129.652C455.398 129.652 456.623 129.317 457.749 128.645C458.876 127.973 459.775 127.085 460.447 125.98C461.118 124.853 461.454 123.618 461.454 122.275C461.454 120.932 461.118 119.707 460.447 118.602C459.775 117.476 458.876 116.577 457.749 115.905C456.623 115.233 455.398 114.897 454.077 114.897C452.733 114.897 451.498 115.233 450.372 115.905C449.267 116.577 448.368 117.476 447.674 118.602C447.003 119.707 446.667 120.932 446.667 122.275C446.667 123.618 447.003 124.853 447.674 125.98C448.368 127.085 449.267 127.973 450.372 128.645C451.498 129.317 452.733 129.652 454.077 129.652ZM426.679 108.625C424.534 108.625 422.573 108.105 420.797 107.065C419.02 106.003 417.601 104.595 416.539 102.84C415.499 101.063 414.979 99.0917 414.979 96.925C414.979 94.8017 415.521 92.8517 416.604 91.075C417.688 89.2983 419.118 87.8792 420.894 86.8175C422.671 85.7558 424.599 85.225 426.679 85.225C428.824 85.225 430.774 85.7558 432.529 86.8175C434.306 87.8575 435.725 89.2658 436.787 91.0425C437.848 92.7975 438.379 94.7583 438.379 96.925C438.379 99.0917 437.848 101.063 436.787 102.84C435.725 104.595 434.306 106.003 432.529 107.065C430.774 108.105 428.824 108.625 426.679 108.625ZM426.679 104.302C428.023 104.302 429.247 103.967 430.352 103.295C431.478 102.623 432.378 101.735 433.049 100.63C433.721 99.5033 434.057 98.2683 434.057 96.925C434.057 95.5817 433.721 94.3575 433.049 93.2525C432.378 92.1258 431.478 91.2267 430.352 90.555C429.247 89.8833 428.023 89.5475 426.679 89.5475C425.336 89.5475 424.101 89.8833 422.974 90.555C421.869 91.2267 420.981 92.1258 420.309 93.2525C419.638 94.3575 419.302 95.5817 419.302 96.925C419.302 98.2683 419.638 99.5033 420.309 100.63C420.981 101.735 421.869 102.623 422.974 103.295C424.101 103.967 425.336 104.302 426.679 104.302Z" fill="white"/>
<rect y="29.6719" width="2" height="173" fill="#5C8692"/>
</svg>
